<svg xmlns="http://www.w3.org/2000/svg" xmlns:xlink="http://www.w3.org/1999/xlink" width="500" zoomAndPan="magnify" viewBox="0 0 375 374.999991" height="500" preserveAspectRatio="xMidYMid meet" version="1.0"><defs><clipPath id="18ee26903c"><path d="M 213 85 L 305.625 85 L 305.625 156 L 213 156 Z M 213 85 " clip-rule="nonzero"/></clipPath><clipPath id="9188de1b5d"><path d="M 196 60.761719 L 205 60.761719 L 205 336.75 L 196 336.75 Z M 196 60.761719 " clip-rule="nonzero"/></clipPath><clipPath id="f954bd9111"><path d="M 90.386719 85 L 190 85 L 190 312 L 90.386719 312 Z M 90.386719 85 " clip-rule="nonzero"/></clipPath></defs><path fill="#9900cc" d="M 213.84375 185.558594 L 213.84375 222.578125 C 237.308594 225.730469 256.542969 231.382812 256.542969 248.796875 C 256.542969 264.378906 242.6875 276.714844 213.84375 277.132812 L 213.84375 312.21875 C 253.101562 311.824219 296.183594 293.816406 296.183594 250.015625 C 296.183594 202.699219 256.859375 190.835938 213.84375 185.558594 Z M 213.84375 185.558594 " fill-opacity="1" fill-rule="nonzero"/><g clip-path="url(#18ee26903c)"><path fill="#9900cc" d="M 213.84375 121.964844 C 239.089844 122.441406 262.863281 132.863281 272.09375 155.792969 L 305.636719 138.410156 C 289.925781 99.746094 256.851562 86.226562 213.84375 85.976562 Z M 213.84375 121.964844 " fill-opacity="1" fill-rule="nonzero"/></g><g clip-path="url(#9188de1b5d)"><path fill="#9900cc" d="M 204.976562 336.710938 L 196.109375 336.710938 L 196.109375 60.796875 L 204.976562 60.796875 Z M 204.976562 336.710938 " fill-opacity="1" fill-rule="nonzero"/></g><g clip-path="url(#f954bd9111)"><path fill="#f75023" d="M 132.820312 311.78125 L 132.820312 216.246094 L 189.933594 216.246094 L 189.933594 176.734375 L 132.820312 176.734375 L 132.820312 85.089844 L 90.390625 85.089844 L 90.390625 311.78125 Z M 132.820312 311.78125 " fill-opacity="1" fill-rule="nonzero"/></g><path stroke-linecap="butt" transform="matrix(0.75, -0.000000000000000372, 0.000000000000000372, 0.75, 90.374003, 76.95143)" fill="none" stroke-linejoin="miter" d="M 0.00132991 2.00226 L 56.704459 2.00226 " stroke="#9900cc" stroke-width="4" stroke-opacity="1" stroke-miterlimit="4"/></svg>